<svg width="100" height="30" viewBox="0 0 100 30" fill="none" xmlns="http://www.w3.org/2000/svg">
<path fill-rule="evenodd" clip-rule="evenodd" d="M13.7094 4.84415L13.7089 4.84057C10.8131 -13.8951 -18.3629 28.0056 18.422 25.0427L17.5328 30C17.5328 30 29.179 27.5292 30.5208 17.7533C30.5208 17.7533 33.06 2.53608 13.7094 4.84415ZM9.13499 10.3101C6.40738 10.3101 4.17577 12.4132 4.17577 14.9838C4.17577 17.5544 6.40738 19.6575 9.13499 19.6575H12.33C13.9636 19.2119 14.2918 17.7549 15.6902 17.8741C16.2023 17.9178 16.599 18.1862 16.8664 18.4336C17.3682 18.8985 17.8613 19.4023 18.7954 19.6575H21.9532C24.6808 19.6575 26.9124 17.5544 26.9124 14.9838C26.9124 12.4132 24.6808 10.3101 21.9532 10.3101H9.13499ZM17.4938 16.1785C17.3086 15.6325 18.2818 13.932 20.1012 13.463C21.4448 13.1164 24.172 13.5891 24.8959 14.2362C24.9115 14.7727 23.9412 15.4821 23.3989 15.7554C22.9031 16.0056 22.3976 16.1553 21.7528 16.2408C21.0394 16.3352 17.9478 16.3478 17.4938 16.1785ZM10.9872 13.463C12.8066 13.9319 13.7797 15.6325 13.5945 16.1785C13.1407 16.3478 10.049 16.3353 9.33561 16.2408C8.69085 16.1554 8.18526 16.0056 7.6896 15.7555C7.14725 15.4821 6.17697 14.7727 6.19255 14.2362C6.91649 13.5891 9.64369 13.1164 10.9872 13.463Z" fill="url(#paint0_linear_2157_7349)"/>
<path d="M40.6918 19.7688C41.0999 19.7947 41.3991 19.8919 41.5896 20.0603C41.78 20.2288 41.8752 20.4749 41.8752 20.7988C41.8752 21.1745 41.7188 21.4595 41.4059 21.6539C41.0931 21.8482 40.6442 21.926 40.0593 21.8871L39.4881 21.8482C37.1079 21.6668 35.9177 20.4814 35.9177 18.2918V14.444H35.1016C34.6528 14.444 34.3128 14.3501 34.0816 14.1622C33.8504 13.9743 33.7347 13.7055 33.7347 13.3557C33.7347 12.9929 33.8503 12.7177 34.0816 12.5298C34.3127 12.3419 34.6528 12.2479 35.1016 12.2479H35.9177V10.7321C35.9177 10.3046 36.0571 9.96777 36.3359 9.72163C36.6148 9.47542 36.9922 9.35238 37.4683 9.35238C37.9444 9.35238 38.3184 9.47542 38.5904 9.72163C38.8624 9.96777 38.9984 10.3046 38.9984 10.7321V12.2479H40.4266C41.3514 12.2479 41.8139 12.6172 41.8139 13.3557C41.8139 13.7055 41.6982 13.9743 41.467 14.1622C41.2358 14.3501 40.8889 14.444 40.4265 14.444H38.9984V18.5057C38.9984 18.8944 39.0935 19.1891 39.284 19.3899C39.4744 19.5907 39.7532 19.7041 40.1204 19.7299L40.6917 19.7688H40.6918ZM47.5265 12.0148C48.9955 12.0148 50.0836 12.3549 50.7908 13.0351C51.4981 13.7152 51.8518 14.7549 51.8518 16.1541V20.5462C51.8518 20.9737 51.7226 21.3073 51.4641 21.547C51.2057 21.7867 50.8453 21.9065 50.3828 21.9065C49.9476 21.9065 49.5974 21.7802 49.3321 21.5276C49.0669 21.275 48.9343 20.9478 48.9343 20.5462V20.4101C48.7303 20.8895 48.3903 21.2652 47.9142 21.5373C47.4382 21.8094 46.8804 21.9454 46.2413 21.9454C45.5613 21.9454 44.9457 21.8159 44.3949 21.5567C43.8441 21.2976 43.4088 20.9349 43.0891 20.4684C42.7695 20.002 42.6096 19.4838 42.6096 18.9138C42.6096 18.2142 42.7967 17.6635 43.1707 17.2619C43.5447 16.8602 44.1466 16.5687 44.9763 16.3874C45.8059 16.206 46.9417 16.1153 48.3834 16.1153H48.9138V15.7655C48.9138 15.2214 48.788 14.8263 48.5365 14.5801C48.2848 14.3339 47.8666 14.2109 47.2817 14.2109C46.6968 14.2109 45.8535 14.4052 44.7519 14.7939C44.439 14.9364 44.1739 15.0077 43.9562 15.0077C43.657 15.0077 43.419 14.9073 43.2421 14.7064C43.0653 14.5056 42.977 14.2432 42.977 13.9194C42.977 13.6602 43.0381 13.4465 43.1605 13.2781C43.283 13.1096 43.4802 12.9541 43.7523 12.8116C44.2283 12.5655 44.8098 12.3711 45.4966 12.2286C46.1835 12.086 46.8602 12.0149 47.5267 12.0149L47.5265 12.0148ZM46.9144 19.9243C47.5129 19.9243 47.9957 19.7332 48.363 19.3509C48.7302 18.9688 48.9138 18.4732 48.9138 17.8643V17.5339H48.567C47.4653 17.5339 46.6934 17.6181 46.2513 17.7865C45.8093 17.955 45.5882 18.2594 45.5882 18.6999C45.5882 19.0626 45.7141 19.3574 45.9657 19.5841C46.2173 19.8108 46.5335 19.9242 46.9144 19.9242L46.9144 19.9243ZM55.7077 21.9065C55.2589 21.9065 54.8882 21.7899 54.5958 21.5567C54.3033 21.3236 54.1571 20.9802 54.1571 20.5268V9.37182C54.1571 8.91834 54.3033 8.57504 54.5958 8.34183C54.8882 8.10869 55.2589 7.99209 55.7077 7.99209C56.1429 7.99209 56.5068 8.10869 56.7992 8.34183C57.0916 8.57504 57.2378 8.91841 57.2378 9.37182V20.5268C57.2378 20.9803 57.0916 21.3236 56.7992 21.5567C56.5068 21.7899 56.1429 21.9065 55.7077 21.9065ZM69.0506 19.5162C69.3634 19.8012 69.5198 20.1251 69.5198 20.4879C69.5198 20.8506 69.3804 21.1745 69.1016 21.4596C68.8228 21.7446 68.4997 21.8872 68.1326 21.8872C67.7788 21.8872 67.4525 21.7511 67.1532 21.479L62.6851 17.5339V20.5073C62.6851 20.9608 62.5389 21.3041 62.2466 21.5373C61.9541 21.7705 61.5903 21.8871 61.155 21.8871C60.7062 21.8871 60.3356 21.7705 60.0431 21.5373C59.7507 21.3041 59.6045 20.9608 59.6045 20.5073V9.37182C59.6045 8.91834 59.7507 8.57504 60.0431 8.34183C60.3356 8.10869 60.7062 7.99209 61.155 7.99209C61.5903 7.99209 61.9541 8.10869 62.2466 8.34183C62.5389 8.57504 62.6851 8.91841 62.6851 9.37182V16.3291L66.7655 12.5006C67.0648 12.2156 67.398 12.0731 67.7653 12.0731C68.1461 12.0731 68.4793 12.2059 68.7649 12.4715C69.0506 12.7371 69.1934 13.0513 69.1934 13.414C69.1934 13.7508 69.037 14.0683 68.7242 14.3663L66.0107 16.8344L69.0506 19.5162V19.5162ZM83.9645 20.8765C84.0189 20.9802 84.046 21.0903 84.046 21.207C84.046 21.4013 83.9678 21.5632 83.8113 21.6928C83.655 21.8224 83.468 21.8872 83.2504 21.8872C82.9103 21.8872 82.6723 21.7317 82.5363 21.4207L81.0877 18.2725H73.3961L71.9272 21.4207C71.7912 21.7317 71.5532 21.8872 71.2131 21.8872C70.9955 21.8872 70.8051 21.8192 70.6418 21.6831C70.4787 21.5471 70.397 21.3819 70.397 21.1876C70.397 21.0839 70.4242 20.9803 70.4787 20.8766L76.3136 8.5168C76.3952 8.3354 76.5176 8.19936 76.6809 8.10869C76.844 8.01802 77.0209 7.97266 77.2112 7.97266C77.4153 7.97266 77.5989 8.02121 77.7621 8.11838C77.9253 8.21555 78.0477 8.34833 78.1293 8.5168L83.9643 20.8766L83.9645 20.8765ZM74.0083 16.9509H80.4756L77.2317 9.9742L74.0083 16.9509ZM99.1843 7.99202C99.4427 7.99202 99.6434 8.06644 99.7862 8.21548C99.929 8.36445 100 8.56204 100 8.80824V21.1097C100 21.3429 99.9323 21.5308 99.7963 21.6733C99.6603 21.8159 99.4699 21.8871 99.2251 21.8871C98.9802 21.8871 98.7967 21.8159 98.6742 21.6733C98.5518 21.5308 98.4906 21.3429 98.4906 21.1097V11.1791L94.0634 19.2635C93.8729 19.6393 93.5941 19.8271 93.2269 19.8271C92.8732 19.8271 92.5944 19.6393 92.3905 19.2635L87.9428 11.2763V21.1098C87.9428 21.343 87.8781 21.5308 87.7489 21.6734C87.6197 21.8159 87.4327 21.8872 87.1879 21.8872C86.943 21.8872 86.7526 21.8159 86.6166 21.6734C86.4806 21.5308 86.4126 21.343 86.4126 21.1098V8.8083C86.4126 8.56216 86.4873 8.36451 86.637 8.21554C86.7865 8.0665 86.9906 7.99209 87.249 7.99209C87.5891 7.99209 87.8611 8.17992 88.065 8.55566L93.2472 18.0198L98.3681 8.55566C98.4769 8.34839 98.5959 8.20261 98.7251 8.11838C98.8544 8.03421 99.0074 7.99209 99.1842 7.99209L99.1843 7.99202Z" fill="#212121"/>
<defs>
<linearGradient id="paint0_linear_2157_7349" x1="30.2808" y1="12.7182" x2="0.259166" y2="17.3584" gradientUnits="userSpaceOnUse">
<stop stop-color="#1491DC"/>
<stop offset="1" stop-color="#15D2F9"/>
</linearGradient>
</defs>
</svg>
